<svg clip-rule="evenodd" fill-rule="evenodd" height="758" stroke-linejoin="round" stroke-miterlimit="2" viewBox="-.183 0 199.083 257.9" width="2500" xmlns="http://www.w3.org/2000/svg"><g fill-rule="nonzero"><path d="m53.332 15.987h-2.457v5.188a.29.29 0 0 1 -.293.293h-2.512a.29.29 0 0 1 -.293-.293v-14.373a.29.29 0 0 1 .293-.294h5.28c1.76 0 3.135.385 4.088 1.174s1.43 1.906 1.43 3.336c0 1.027-.22 1.87-.66 2.549s-1.118 1.228-1.998 1.631l3.08 5.83c.11.184-.037.422-.257.422h-2.695a.355.355 0 0 1 -.311-.183zm-2.457-2.494h2.475c.77 0 1.375-.201 1.797-.586s.641-.935.641-1.632-.201-1.265-.605-1.668-1.008-.605-1.833-.605h-2.475zm16.243 7.792a4.47 4.47 0 0 1 -.22-.825c-.715.807-1.65 1.192-2.805 1.192-1.081 0-1.998-.312-2.695-.935-.715-.624-1.063-1.43-1.063-2.384 0-1.173.44-2.071 1.302-2.713.88-.623 2.126-.953 3.776-.953h1.357v-.642c0-.513-.128-.917-.403-1.228-.257-.312-.679-.459-1.247-.459-.495 0-.898.129-1.173.367-.22.202-.367.44-.404.752a.293.293 0 0 1 -.275.238h-2.401a.29.29 0 0 1 -.294-.33c.055-.513.257-1.008.587-1.467.403-.55.953-.971 1.687-1.283s1.54-.458 2.438-.458c1.375 0 2.457.348 3.263 1.026.807.697 1.21 1.65 1.21 2.897v4.803c0 .844.092 1.577.349 2.145.091.202-.037.422-.257.422h-2.457c-.128 0-.238-.055-.275-.165zm-2.383-1.888c.44 0 .843-.092 1.21-.294s.642-.458.825-.788v-1.907h-1.1c-1.485 0-2.273.514-2.365 1.54l-.018.184c0 .366.128.678.385.916.256.22.605.349 1.063.349zm13.072-1.009c0-.366-.184-.641-.532-.861-.367-.202-.935-.404-1.723-.569-2.64-.55-3.96-1.668-3.96-3.373 0-.99.403-1.815 1.228-2.475s1.888-.99 3.208-.99c1.412 0 2.53.33 3.374.99.77.605 1.173 1.357 1.246 2.292.019.165-.128.293-.293.293h-2.402a.263.263 0 0 1 -.275-.238 1.361 1.361 0 0 0 -.403-.807c-.275-.275-.697-.422-1.283-.422-.495 0-.88.11-1.155.33s-.404.514-.404.862c0 .33.147.587.459.788s.843.385 1.576.532 1.357.312 1.87.495c1.559.568 2.347 1.577 2.347 2.988 0 1.009-.44 1.834-1.302 2.457s-1.998.935-3.373.935c-.935 0-1.76-.165-2.475-.495s-1.283-.788-1.705-1.357a3.099 3.099 0 0 1 -.605-1.54.298.298 0 0 1 .293-.33h2.255c.129 0 .257.092.275.22.074.422.257.752.569.99.366.275.843.422 1.448.422.568 0 .99-.11 1.283-.33a.88.88 0 0 0 .459-.807zm14.666-2.383c0 1.705-.385 3.08-1.173 4.107-.77 1.026-1.833 1.54-3.153 1.54-1.119 0-2.035-.385-2.714-1.174v4.95a.29.29 0 0 1 -.293.294h-2.383a.29.29 0 0 1 -.294-.294v-14.795a.29.29 0 0 1 .294-.293h2.2c.146 0 .275.11.293.257l.073.825c.715-.862 1.65-1.302 2.805-1.302 1.375 0 2.439.513 3.19 1.522s1.137 2.401 1.137 4.18v.183zm-2.97-.22c0-1.027-.183-1.833-.55-2.383-.366-.569-.898-.844-1.595-.844-.935 0-1.576.349-1.925 1.064v4.546c.367.734 1.009 1.1 1.944 1.1 1.411 0 2.126-1.155 2.126-3.483zm14.703.22c0 1.778-.385 3.172-1.136 4.162s-1.815 1.485-3.19 1.485c-1.21 0-2.164-.459-2.879-1.394l-.11.917a.296.296 0 0 1 -.293.257h-2.127a.29.29 0 0 1 -.293-.294v-15.161a.29.29 0 0 1 .293-.294h2.384a.29.29 0 0 1 .293.294v5.371c.678-.806 1.577-1.191 2.695-1.191 1.357 0 2.42.495 3.19 1.485s1.155 2.401 1.155 4.198v.165zm-2.97-.22c0-1.118-.183-1.943-.531-2.457s-.88-.77-1.595-.77c-.935 0-1.595.385-1.944 1.155v4.382c.367.788 1.027 1.173 1.962 1.173.953 0 1.595-.476 1.888-1.411.147-.459.22-1.155.22-2.072zm9.754 5.867c-1.632 0-2.952-.495-3.979-1.504-1.026-.99-1.54-2.328-1.54-3.996v-.294c0-1.118.22-2.108.642-2.988.44-.88 1.045-1.558 1.833-2.035s1.687-.715 2.695-.715c1.522 0 2.714.477 3.594 1.43s1.301 2.31 1.301 4.07v.917a.29.29 0 0 1 -.293.293h-6.783c.091.733.385 1.302.861 1.742s1.1.66 1.834.66c1.026 0 1.851-.33 2.475-1.009.11-.128.311-.11.421.019l1.082 1.21c.092.11.11.256.018.366-.421.532-.99.972-1.668 1.284-.715.385-1.558.55-2.493.55zm-.33-9.112c-.587 0-1.064.202-1.43.605s-.605.972-.697 1.705h4.125v-.238c-.018-.66-.183-1.174-.532-1.522-.348-.367-.843-.55-1.466-.55zm12.815.275a.28.28 0 0 1 -.312.275c-.275-.037-.532-.037-.752-.037-1.118 0-1.851.385-2.2 1.137v6.985a.29.29 0 0 1 -.293.293h-2.383a.29.29 0 0 1 -.294-.293v-10.542a.29.29 0 0 1 .294-.293h2.236c.147 0 .275.11.294.275l.073 1.045c.587-1.027 1.412-1.522 2.475-1.522.238 0 .477.019.715.074.128.036.22.146.22.275zm7.498 0a.28.28 0 0 1 -.312.275c-.275-.037-.531-.037-.751-.037-1.119 0-1.852.385-2.2 1.137v6.985a.29.29 0 0 1 -.294.293h-2.383a.29.29 0 0 1 -.293-.293v-10.542a.29.29 0 0 1 .293-.293h2.237c.146 0 .275.11.293.275l.073 1.045c.587-1.027 1.412-1.522 2.475-1.522.239 0 .477.019.715.074.129.036.22.146.22.275zm5.977 4.437 1.998-6.692a.275.275 0 0 1 .275-.202h2.567c.201 0 .33.202.275.385l-4.327 12.449-.238.586c-.66 1.449-1.76 2.182-3.282 2.182-.367 0-.733-.037-1.1-.128a.292.292 0 0 1 -.22-.275v-1.724a.29.29 0 0 1 .293-.293l.294.018c.568 0 .843-.091 1.118-.275.275-.165.495-.458.66-.843l.348-.917-3.758-10.743c-.073-.183.073-.385.275-.385h2.567c.128 0 .238.092.275.202zm14.905-1.064v4.969a.29.29 0 0 1 -.294.293h-2.511a.29.29 0 0 1 -.294-.293v-14.355a.29.29 0 0 1 .294-.294h5.536c1.119 0 2.109.202 2.952.624s1.503.99 1.962 1.741.696 1.614.696 2.585c0 1.467-.495 2.622-1.503 3.465s-2.383 1.265-4.162 1.265zm0-2.493h2.75c.806 0 1.43-.183 1.87-.568.421-.385.641-.935.641-1.65 0-.734-.22-1.32-.641-1.779s-1.027-.678-1.779-.696h-2.823v4.693zm9.826-6.215c0-.44.147-.807.44-1.1s.697-.44 1.21-.44.917.147 1.21.44.459.66.459 1.1c0 .458-.147.825-.459 1.1-.311.293-.715.44-1.21.44s-.898-.147-1.21-.44c-.293-.275-.44-.66-.44-1.1zm2.86 13.97h-2.401a.29.29 0 0 1 -.294-.293v-10.524a.29.29 0 0 1 .294-.293h2.401a.29.29 0 0 1 .294.293v10.524c-.019.165-.147.293-.294.293z" fill="#1d1d1b"/><path d="m38.775 28.692c-.22-2.31-1.265-4.364-2.732-5.445a6.889 6.889 0 0 0 -1.265-2.475c-.091-1.082-.55-3.209-2.695-5.097.239-.22.459-.458.624-.752 1.796-.806 3.043-2.475 3.19-3.721.953-.954 1.503-2.09 1.54-3.209.018-.531-.074-1.026-.275-1.448.788-.862 1.045-1.852.715-2.842-.532-1.54-2.402-2.548-4.914-2.658-.678-.623-1.613-.935-2.731-.935-.477 0-.99.055-1.485.183-.404-.201-.899-.293-1.449-.293-.935 0-1.98.293-2.768.752-.128-.019-.238-.019-.348-.019-1.247 0-2.494.862-3.135 1.375-.624.514-1.192 1.1-1.65 1.705a9.655 9.655 0 0 0 -1.65-1.705c-.605-.513-1.87-1.375-3.117-1.375-.11 0-.22 0-.33.019a5.795 5.795 0 0 0 -2.768-.752c-.55 0-1.045.11-1.449.293a5.883 5.883 0 0 0 -1.485-.183c-1.118 0-2.071.33-2.731.935-2.53.11-4.4 1.118-4.932 2.658-.33.972-.073 1.98.715 2.842-.202.422-.293.917-.275 1.448.037 1.119.587 2.255 1.54 3.209.147 1.246 1.412 2.933 3.19 3.721.165.294.385.55.623.752-2.145 1.87-2.603 3.997-2.695 5.097a6.61 6.61 0 0 0 -1.265 2.475c-1.466 1.081-2.511 3.135-2.731 5.445-.22 2.291.421 4.436 1.705 5.793.183 1.027.77 2.383 1.393 3.208.128 1.742.862 3.465 2.108 4.859 1.247 1.411 2.879 2.383 4.639 2.75 1.063.99 2.181 1.686 3.703 2.291.66.679 2.603 2.274 5.83 2.274s5.17-1.614 5.83-2.274c1.522-.605 2.64-1.301 3.703-2.291 1.76-.367 3.392-1.339 4.639-2.75 1.228-1.394 1.98-3.117 2.108-4.859.623-.825 1.21-2.163 1.393-3.208 1.284-1.357 1.907-3.502 1.687-5.793z" fill="#1d1d1b"/><path d="m24.108 3.355c.129-.037.257.073.257.202-.055.586.293.513.385.421.935-1.155 1.925-1.43 2.805-1.356.147.018.238.201.128.311-.348.514.019.624.165.532 1.43-.898 2.805-.898 3.337-.532.11.074.11.22.018.312-.531.458-.238.678-.055.605 1.467-.513 3.484-.055 4.18.532a.19.19 0 0 1 0 .293c-.88.788-1.32 1.412-1.521 2.658-.037.349.531.275.788.22.128-.036.238.055.238.184.019.843-.77 1.76-1.961 2.548-.165.11-.129.367.22.367.165.018.238.165.165.293-.422.788-.99 1.522-2.952 2.017-.183.055-.202.293-.037.385.165.073.184.238.055.33-1.943 1.668-6.875 1.008-7.498-1.797-.018-.055 0-.11.037-.165 1.173-1.558 3.886-4.62 8.176-6.215.165-.073.11-.33-.073-.293-4.162.623-7.095 2.933-8.873 5.353a.197.197 0 0 1 -.257.055c-3.117-1.595-.532-6.417 2.273-7.26zm-18.571 7.627c-.074-.129 0-.275.165-.294.366-.018.385-.256.22-.366-1.174-.789-1.98-1.705-1.962-2.549 0-.128.128-.22.238-.183.239.055.825.128.789-.22-.202-1.247-.642-1.87-1.522-2.658a.19.19 0 0 1 0-.294c.697-.586 2.713-1.045 4.18-.531.183.073.477-.165-.055-.605-.092-.092-.092-.239.018-.312.55-.403 1.925-.403 3.355.495.147.092.514 0 .165-.532-.091-.128-.018-.311.129-.311.88-.074 1.87.183 2.805 1.356.091.11.44.184.385-.421-.019-.147.11-.257.256-.202 2.805.862 5.39 5.665 2.237 7.297-.092.036-.202.018-.257-.055-1.778-2.42-4.711-4.73-8.873-5.354-.183-.018-.257.239-.073.294 4.29 1.613 7.003 4.656 8.176 6.215.037.055.055.11.037.165-.623 2.805-5.555 3.465-7.498 1.796-.11-.091-.11-.256.055-.33s.165-.33-.037-.385c-1.943-.495-2.512-1.246-2.933-2.016z" fill="#47ac4d"/></g><g fill="#cc2455" transform="scale(.18333)"><path d="m173.8 106.8c4.4 11.8 1 17.4-9.5 11.4-8.3-4.5-16.1-11.1-22-18.5-7.9-9.4-2.8-13.6 9.7-11.3 9.2 2.3 18 9.6 21.8 18.4zm-47-13.3c15 12.5-2.2 21.3-20.9 21.3s-35.9-8.8-20.9-21.3c9-7 17.6-7.3 20.9-7.3s11.9.3 20.9 7.3zm-88.8 13.3c3.8-8.7 12.6-16.1 21.9-18.3 12.4-2.3 17.6 1.9 9.7 11.3-5.9 7.4-13.7 13.9-22 18.5-10.6 5.9-14 .2-9.6-11.5zm-21.7 65.3c-3.5-9.1-2.6-20.1 2.5-28.6 5.5-9.4 11.1-9 13.3-1.1 2.9 10.5 1.8 23.1-2.9 33-4.1 8.2-9.2 5.5-12.9-3.3zm39.9 61c-13.3-2.8-24.6-16.2-25.1-29.8 2.1-48.3 71.8 38.1 25.1 29.8zm1.4-60.2c-11.7-6.8-14.8-23.3-6.9-36.9s23.7-19.2 35.4-12.5c11.7 6.8 14.8 23.3 6.9 36.9s-23.7 19.2-35.4 12.5zm67.8 78.7c-5.5 4-12.2 6.3-19.5 6.3s-14-2.3-19.5-6.3c-11.6-8 .1-17.2 19.5-17.2s31.1 9.2 19.5 17.2z" fill-rule="nonzero"/><ellipse cx="105.9" cy="199" rx="27.1" ry="23.3"/><path d="m118.7 160.4c-7.9-13.6-4.8-30.2 6.9-36.9 11.7-6.8 27.6-1.2 35.4 12.5 7.9 13.6 4.8 30.2-6.9 36.9s-27.6 1.1-35.4-12.5zm36.8 72.7c-46.7 8.2 23-78.2 25.1-29.8-.5 13.6-11.8 27-25.1 29.8zm40-61c-3.7 8.8-8.8 11.5-12.9 3.4-4.6-9.9-5.7-22.5-2.9-33 2.2-8 7.8-8.4 13.3 1.1 5.1 8.4 5.9 19.4 2.5 28.5z" fill-rule="nonzero"/></g><path d="m56.118 37.29h-6.27v6.6h-1.961v-14.942h9.258v1.614h-7.297v5.115h6.27zm2.017.953c0-1.081.22-2.071.642-2.933s1.026-1.54 1.778-2.017c.77-.476 1.632-.715 2.603-.715 1.504 0 2.732.532 3.667 1.577s1.393 2.438 1.393 4.18v.128c0 1.082-.201 2.054-.623 2.915s-1.008 1.522-1.778 1.999-1.65.715-2.659.715c-1.503 0-2.731-.532-3.666-1.577s-1.394-2.438-1.394-4.162v-.11zm1.925.22c0 1.229.293 2.219.862 2.97s1.338 1.119 2.291 1.119c.972 0 1.724-.385 2.292-1.137s.843-1.815.843-3.172c0-1.21-.293-2.2-.861-2.97-.587-.751-1.339-1.136-2.31-1.136-.935 0-1.687.366-2.274 1.118-.568.752-.843 1.833-.843 3.208zm17.142 4.345c-.734.862-1.815 1.302-3.264 1.302-1.191 0-2.09-.348-2.713-1.027s-.935-1.705-.935-3.061v-7.224h1.907v7.169c0 1.686.678 2.53 2.053 2.53 1.448 0 2.42-.532 2.897-1.614v-8.085h1.906v11.11h-1.815zm6.215-10.01.055 1.394c.843-1.064 1.961-1.595 3.318-1.595 2.347 0 3.538 1.32 3.557 3.978v7.333h-1.907v-7.351c0-.807-.183-1.394-.55-1.779s-.917-.568-1.687-.568c-.623 0-1.155.165-1.613.495s-.825.752-1.082 1.302v7.92h-1.906v-11.11h1.815zm9.001 5.464c0-1.705.403-3.08 1.21-4.107.807-1.045 1.87-1.558 3.172-1.558s2.328.44 3.098 1.338v-5.793h1.907v15.766h-1.742l-.092-1.191c-.751.935-1.815 1.393-3.171 1.393-1.284 0-2.329-.532-3.154-1.577-.806-1.045-1.21-2.42-1.21-4.125v-.146zm1.888.201c0 1.265.257 2.237.789 2.952.513.715 1.246 1.063 2.163 1.063 1.21 0 2.09-.531 2.64-1.613v-5.097c-.568-1.045-1.448-1.576-2.622-1.576-.935 0-1.65.366-2.181 1.081-.514.715-.789 1.779-.789 3.19zm17.014 5.427c-.11-.22-.202-.605-.275-1.173-.88.916-1.944 1.375-3.154 1.375-1.1 0-1.998-.312-2.695-.935s-1.045-1.412-1.045-2.347c0-1.155.44-2.053 1.32-2.695s2.109-.953 3.704-.953h1.851v-.862c0-.66-.201-1.192-.586-1.595-.404-.385-.99-.587-1.76-.587-.679 0-1.247.165-1.705.514s-.697.751-.697 1.246h-1.907c0-.55.202-1.081.587-1.613s.935-.917 1.595-1.228a5.516 5.516 0 0 1 2.218-.459c1.284 0 2.274.312 3.007.954s1.1 1.521 1.137 2.64v5.115c0 1.026.128 1.833.385 2.438v.165zm-3.154-1.43c.587 0 1.155-.147 1.687-.458s.917-.715 1.155-1.21v-2.274h-1.485c-2.328 0-3.483.679-3.483 2.035 0 .587.201 1.064.586 1.394s.917.513 1.54.513zm10.102-12.375v2.713h2.072v1.467h-2.072v6.893c0 .44.092.77.275 1.009.183.22.495.33.935.33.22 0 .513-.037.898-.129v1.522c-.495.128-.99.202-1.466.202-.844 0-1.485-.257-1.925-.77s-.642-1.247-.642-2.182v-6.893h-2.017v-1.467h2.017v-2.695zm4.088-.238c0-.312.092-.569.275-.789s.459-.311.844-.311c.366 0 .641.11.843.311.183.22.293.477.293.789s-.091.568-.293.77c-.183.201-.477.311-.843.311s-.642-.11-.844-.311c-.183-.202-.275-.459-.275-.77zm2.054 14.043h-1.907v-11.11h1.907zm2.31-5.647c0-1.081.22-2.071.641-2.933s1.027-1.54 1.779-2.017c.77-.476 1.631-.715 2.603-.715 1.503 0 2.732.532 3.667 1.577s1.393 2.438 1.393 4.18v.128c0 1.082-.202 2.054-.623 2.915s-1.009 1.522-1.779 1.999-1.65.715-2.658.715c-1.503 0-2.732-.532-3.667-1.577s-1.393-2.438-1.393-4.162v-.11zm1.925.22c0 1.229.293 2.219.861 2.97s1.339 1.119 2.292 1.119c.972 0 1.723-.385 2.292-1.137s.843-1.815.843-3.172c0-1.21-.293-2.2-.862-2.97s-1.338-1.136-2.31-1.136c-.935 0-1.686.366-2.273 1.118-.568.752-.843 1.833-.843 3.208zm12.026-5.665.055 1.394c.844-1.064 1.962-1.595 3.319-1.595 2.346 0 3.538 1.32 3.556 3.978v7.333h-1.906v-7.351c0-.807-.184-1.394-.55-1.779s-.917-.568-1.687-.568c-.623 0-1.155.165-1.613.495s-.825.752-1.082 1.302v7.92h-1.907v-11.11h1.815z" fill="#1d1d1b" fill-rule="nonzero"/></svg>